<?xml version="1.0" standalone="no"?>
<!DOCTYPE svg PUBLIC "-//W3C//DTD SVG 20010904//EN"
 "http://www.w3.org/TR/2001/REC-SVG-20010904/DTD/svg10.dtd">
<svg version="1.0" xmlns="http://www.w3.org/2000/svg"
 width="2031.000000pt" height="2031.000000pt" viewBox="0 0 2031.000000 2031.000000"
 preserveAspectRatio="xMidYMid meet">
<metadata>
Created by potrace 1.16, written by Peter Selinger 2001-2019
</metadata>
<g transform="translate(0.000000,2031.000000) scale(0.100000,-0.100000)"
fill="#000000" stroke="none">
<path d="M0 10155 l0 -10155 10115 0 10115 0 0 10155 0 10155 -10115 0 -10115
0 0 -10155z m10480 6485 c1763 -108 3385 -993 4463 -2435 1625 -2172 1661
-5212 89 -7425 -919 -1294 -2282 -2177 -3804 -2464 -386 -73 -685 -100 -1108
-100 -329 0 -463 8 -755 45 -1019 130 -1991 526 -2820 1149 -1077 809 -1865
1958 -2240 3265 -263 918 -315 1877 -155 2830 322 1916 1528 3586 3230 4473
950 495 2037 727 3100 662z"/>
<path d="M10070 11325 l0 -2625 980 0 980 0 0 1105 0 1105 730 0 730 0 0 495
0 495 -730 0 -730 0 0 500 0 500 815 0 815 0 0 525 0 525 -1795 0 -1795 0 0
-2625z"/>
<path d="M7402 10653 l3 -3288 1155 0 1155 0 3 3288 2 3287 -1160 0 -1160 0 2
-3287z"/>
<path d="M10020 7965 l0 -605 1005 0 1005 0 0 605 0 605 -1005 0 -1005 0 0
-605z"/>
</g>
</svg>
